<svg xmlns="http://www.w3.org/2000/svg" viewBox="0 0 779.95 870"><defs><style>.a{fill:#fff;}</style></defs><title>DR_icon_white</title><path class="a" d="M749.51,199.29l-291-168a98.94,98.94,0,0,0-98.94,0l-291,168A98.94,98.94,0,0,0,19,285V621a98.94,98.94,0,0,0,49.47,85.68l291,168a98.94,98.94,0,0,0,98.94,0l291-168A98.94,98.94,0,0,0,799,621V285A98.94,98.94,0,0,0,749.51,199.29ZM341.16,606.8a8.39,8.39,0,0,1-12.85,7.1L136.94,493.69a15.25,15.25,0,0,1-7.14-12.91V424A15.25,15.25,0,0,1,137,411.06L328.34,292a8.39,8.39,0,0,1,12.82,7.12v60.73a8.39,8.39,0,0,1-4,7.13L211.35,445.07a8.39,8.39,0,0,0,0,14.26l125.84,78.09a8.39,8.39,0,0,1,4,7.13Zm347-126a15.25,15.25,0,0,1-7.14,12.91L489.69,613.9a8.39,8.39,0,0,1-12.85-7.1V544.54a8.39,8.39,0,0,1,4-7.13l125.84-78.09a8.39,8.39,0,0,0,0-14.26L480.81,367a8.39,8.39,0,0,1-4-7.13V299.12A8.39,8.39,0,0,1,489.66,292L681,411.06A15.25,15.25,0,0,1,688.19,424Z" transform="translate(-19.02 -18)"/></svg>