<svg xmlns="http://www.w3.org/2000/svg" viewBox="0 0 1302 241.38"><defs><style>.a{fill:#fff;}</style></defs><title>DR_logo_white</title><path class="a" d="M839.72,110.3a24.06,24.06,0,0,0-9.05-7.23,31,31,0,0,0-13.33-2.62,40.78,40.78,0,0,0-23.16,7.23v59.47a62.2,62.2,0,0,0,7.69,1.35,99.94,99.94,0,0,0,12.36.63q14.6,0,23.36-8.95t8.76-25.39a56.69,56.69,0,0,0-1.55-13.56A29.55,29.55,0,0,0,839.72,110.3Z" transform="translate(0 -0.11)"/><path class="a" d="M712.8,100.27q-13.24,0-20.93,9.31t-7.69,25.22q0,15.91,7.69,25.21t20.93,9.31q13.23,0,20.93-9.31t7.69-25.21q0-15.9-7.69-25.22T712.8,100.27Z" transform="translate(0 -0.11)"/><path class="a" d="M161.75,70.63q-8,0-12.36.18t-6.13.36V167q1.75.18,6.13.36t12.36.18q26.86,0,40.1-12.74t13.24-35.7q0-23-13.24-35.7T161.75,70.63Z" transform="translate(0 -0.11)"/><path class="a" d="M921.27,99.72a25.41,25.41,0,0,0-11,2.26,25.73,25.73,0,0,0-8.08,5.87,26.59,26.59,0,0,0-5.16,8.31,38.53,38.53,0,0,0-2.43,9.58h50.22q.19-11.38-6.13-18.71T921.27,99.72Z" transform="translate(0 -0.11)"/><path class="a" d="M358,99.72A25.41,25.41,0,0,0,347,102a25.72,25.72,0,0,0-8.08,5.87,26.59,26.59,0,0,0-5.16,8.31,38.46,38.46,0,0,0-2.43,9.58h50.22q.19-11.38-6.13-18.71T358,99.72Z" transform="translate(0 -0.11)"/><path class="a" d="M630.66,106.87q2.92-4.61,2.92-12.2a21.91,21.91,0,0,0-2.92-11.75,20.91,20.91,0,0,0-7.88-7.41,36.25,36.25,0,0,0-11.68-3.8,90.15,90.15,0,0,0-14.31-1.08q-12.07,0-18.49.54v47.18h13.43a152.49,152.49,0,0,0,17.52-.9A42.21,42.21,0,0,0,622.39,114,19.29,19.29,0,0,0,630.66,106.87Z" transform="translate(0 -0.11)"/><path class="a" d="M1289.11,53,1203.43,3.56A25.77,25.77,0,0,0,1190.55.11H111.45A25.77,25.77,0,0,0,98.57,3.56L12.89,53A25.77,25.77,0,0,0,0,75.35V166.3a25.77,25.77,0,0,0,12.9,22.33L98.67,238a25.77,25.77,0,0,0,12.87,3.44H1190.47a25.77,25.77,0,0,0,12.87-3.44l85.76-49.43A25.77,25.77,0,0,0,1302,166.3V75.35A25.77,25.77,0,0,0,1289.11,53ZM88.42,162.55a2.28,2.28,0,0,1-3.49,1.93l-52-32.66A4.14,4.14,0,0,1,31,128.31V112.89a4.14,4.14,0,0,1,2-3.52L84.93,77A2.28,2.28,0,0,1,88.42,79v16.5a2.28,2.28,0,0,1-1.08,1.94L53.15,118.61a2.28,2.28,0,0,0,0,3.87L87.34,143.7a2.28,2.28,0,0,1,1.08,1.94Zm141.27-15.2a52.65,52.65,0,0,1-15.38,19.88A67,67,0,0,1,190.56,179a111.93,111.93,0,0,1-30.37,3.89q-8.18,0-18-.63a114.16,114.16,0,0,1-17.81-2.44V58.34a114.59,114.59,0,0,1,17.81-2.44q9.83-.63,18-.63a111.93,111.93,0,0,1,30.37,3.89A67,67,0,0,1,214.3,70.9a52.67,52.67,0,0,1,15.38,19.88q5.45,12,5.45,28.29T229.68,147.35Zm77.08-44.19a65.42,65.42,0,0,0-7.1-1.72,67.11,67.11,0,0,0-12.75-1,51,51,0,0,0-10,1q-5,1-6.52,1.36v79h-18.1v-90a130.53,130.53,0,0,1,16-4.07,110.36,110.36,0,0,1,21.41-1.9c1.56,0,3.34.09,5.35.27s4,.42,5.94.72,3.73.6,5.35.9a35.46,35.46,0,0,1,3.6.81Zm93.63,33a24.27,24.27,0,0,1-.19,3.16H330.9q1.17,14.64,9.15,22.23T365,169.13A71.44,71.44,0,0,0,381,167.6a60.63,60.63,0,0,0,9.83-3l2.53,14.1q-3.31,1.62-11.58,3.43A88.54,88.54,0,0,1,363,184q-13.24,0-22.87-3.71A42.8,42.8,0,0,1,324.28,170,40.9,40.9,0,0,1,315,154.58,61,61,0,0,1,312,135a56.12,56.12,0,0,1,3.89-21.78,45.15,45.15,0,0,1,10.32-15.45A42.28,42.28,0,0,1,341,88.52a49.41,49.41,0,0,1,17.13-3.07q20.44,0,31.34,11.84t10.9,36.06Zm132.36,3.16a447.13,447.13,0,0,1-17.52,42.47H499.47q-5.45-13-11.58-29.73t-11.19-34.79q-5.06,18.08-11.1,34.79t-11.48,29.73H438.35a446.22,446.22,0,0,1-17.52-42.47q-8.57-23.86-16.16-51.51h19.47q1.94,8.5,4.67,18.44t5.74,19.88q3,9.94,6.33,19.16t6.23,16.09q3.31-8.49,6.52-18t6.13-19.16q2.92-9.67,5.55-19t4.58-17.44h15q1.75,8.13,4.28,17.44t5.45,19q2.92,9.67,6.13,19.16t6.52,18q2.92-6.87,6.13-16.09t6.33-19.16q3.11-9.94,5.84-19.88t4.67-18.44h18.69Q541.32,115.45,532.75,139.31ZM641,181.78q-3.9-6.87-8.47-13.92t-9.25-13.47q-4.67-6.41-9.24-12t-8.27-9.76q-2.53.18-5.16.18H578.3v49H559.42V58.34a114.59,114.59,0,0,1,17.81-2.44q9.83-.63,18-.63,28.42,0,43.31,9.94t14.89,29.64q0,12.47-7.11,21.33t-20.92,13.2q3.11,3.62,7.88,9.49t9.83,13q5.06,7.14,10,14.91a148.55,148.55,0,0,1,8.47,15ZM756.8,155A45.72,45.72,0,0,1,747,170.58a43.27,43.27,0,0,1-15.08,10,53.36,53.36,0,0,1-38.15,0,43.27,43.27,0,0,1-15.08-10A45.64,45.64,0,0,1,668.81,155a55.61,55.61,0,0,1-3.5-20.24,55.84,55.84,0,0,1,3.5-20.16A45.54,45.54,0,0,1,678.64,99a43.32,43.32,0,0,1,15.08-10,53.41,53.41,0,0,1,38.15,0A43.32,43.32,0,0,1,747,99a45.62,45.62,0,0,1,9.83,15.63,55.88,55.88,0,0,1,3.5,20.16A55.65,55.65,0,0,1,756.8,155Zm104.82.27a42.77,42.77,0,0,1-10.22,15.45,45.41,45.41,0,0,1-16,9.76,60.61,60.61,0,0,1-21,3.44A136.91,136.91,0,0,1,792,182.33q-9.74-1.63-16-3.25V44.42l18.1-2.89V92a52.23,52.23,0,0,1,25.5-6.33A49,49,0,0,1,839,89.24a40.11,40.11,0,0,1,14.31,10.12,43.64,43.64,0,0,1,8.86,15.54,62.53,62.53,0,0,1,3,19.88A55.52,55.52,0,0,1,861.62,155.3Zm102.09-19.16a24.56,24.56,0,0,1-.19,3.16h-69.3q1.17,14.64,9.15,22.23t24.92,7.59a71.42,71.42,0,0,0,16.06-1.53,60.52,60.52,0,0,0,9.83-3l2.53,14.1q-3.31,1.62-11.58,3.43A88.53,88.53,0,0,1,926.33,184q-13.24,0-22.87-3.71A42.83,42.83,0,0,1,887.6,170a40.91,40.91,0,0,1-9.24-15.45,61,61,0,0,1-3-19.61,56.09,56.09,0,0,1,3.9-21.78,45.15,45.15,0,0,1,10.32-15.45,42.27,42.27,0,0,1,14.79-9.22,49.41,49.41,0,0,1,17.13-3.07q20.44,0,31.34,11.84t10.9,36.06Zm70.86-33a65.59,65.59,0,0,0-7.11-1.72,67.13,67.13,0,0,0-12.75-1,51.08,51.08,0,0,0-10,1q-5,1-6.52,1.36v79h-18.1v-90a130.57,130.57,0,0,1,16-4.07,110.35,110.35,0,0,1,21.41-1.9c1.56,0,3.34.09,5.36.27s4,.42,5.93.72,3.73.6,5.36.9a35.31,35.31,0,0,1,3.6.81Zm66.17-1.27h-38.35v43.38a48.53,48.53,0,0,0,1.17,11.66,17,17,0,0,0,3.5,7.23,12.68,12.68,0,0,0,5.84,3.71,27.84,27.84,0,0,0,8.18,1.08,41.22,41.22,0,0,0,13.14-1.71c3-1,5.15-1.8,6.5-2.29v15.24c-1.56.51-3.43,1.07-5.63,1.69a58.12,58.12,0,0,1-15.57,1.9q-10.32,0-17-2.44a24.79,24.79,0,0,1-10.8-7.32,28.34,28.34,0,0,1-5.74-12,73.79,73.79,0,0,1-1.66-16.54V61.59l18.1-2.89v29.1h38.35Zm66.47,75.37q-10.42,6.69-29.69,6.69-13.43,0-21-2.08c-2.58-.71-4.73-1.32-6.46-1.86V164.44c2.09.72,5.19,1.73,9.38,3.07q6.81,2.17,18.1,2.17,11.1,0,16.45-2.71a9.08,9.08,0,0,0,5.35-8.68,11.28,11.28,0,0,0-5.26-9.76q-5.25-3.61-17.32-8.13-5.84-2.17-11.19-4.43a39.56,39.56,0,0,1-9.24-5.33,23.56,23.56,0,0,1-6.23-7.41,22.25,22.25,0,0,1-2.34-10.66,23.32,23.32,0,0,1,9.93-19.79q9.92-7.32,27.06-7.32a82.14,82.14,0,0,1,8.56.45q4.28.45,8,1.09t6.52,1.35q2.82.73,4.38,1.27l-3.31,14.46a48.4,48.4,0,0,0-9.15-3,63.45,63.45,0,0,0-15-1.54,29.44,29.44,0,0,0-13.24,2.8q-5.64,2.8-5.64,8.76a11.23,11.23,0,0,0,1.27,5.42,12.76,12.76,0,0,0,3.89,4.25,32.62,32.62,0,0,0,6.52,3.53q3.89,1.62,9.34,3.43,7.2,2.54,12.85,5a40.72,40.72,0,0,1,9.63,5.69,22,22,0,0,1,6.13,7.86,26.73,26.73,0,0,1,2.14,11.29Q1177.63,170.58,1167.21,177.27Zm103.79-49a4.14,4.14,0,0,1-1.94,3.51l-52,32.66a2.28,2.28,0,0,1-3.49-1.93V145.64a2.28,2.28,0,0,1,1.08-1.94l34.19-21.21a2.28,2.28,0,0,0,0-3.87L1214.66,97.4a2.28,2.28,0,0,1-1.08-1.94V79a2.28,2.28,0,0,1,3.48-1.93l52,32.34a4.14,4.14,0,0,1,2,3.52Z" transform="translate(0 -0.11)"/></svg>