<svg version="1" xmlns="http://www.w3.org/2000/svg" width="1162.667" height="1162.667" viewBox="0 0 872.000000 872.000000"><path d="M422.8 1.5c-.1.1-2.1.5-4.3.8-8.3.9-25.1 7-33.5 12.1-1.4.8-11 6.4-21.5 12.5-10.4 6-20.4 11.7-22.2 12.7-10.9 6.4-26 15-26.8 15.3-.5.2-2.1 1.2-3.5 2.1-1.4.9-4.5 2.8-7 4.2-2.5 1.4-23.4 13.4-46.5 26.8-23.1 13.3-43.6 25.2-45.5 26.3-3.3 1.8-23.7 13.6-46 26.5-24.7 14.3-55.2 31.9-61.5 35.5-24.4 13.8-35.7 24.1-46.3 42.2-4.1 7-9 18.7-9.8 23.5-.3 1.4-.7 3.2-1 4-.3.8-.9 3.3-1.2 5.5-1 5.6-.9 365.1.1 370 3.9 20 13.4 38 27.4 52.1 9.8 10 12.6 11.8 74.6 47.3 1.8 1 15.8 9.2 31.2 18.1 25.7 14.9 113.9 65.8 124.6 71.9 6.7 3.9 57.2 33.1 58.9 34.2 22.8 13.8 38.3 21.1 49.5 23.4 9 1.9 13.4 2.3 22.5 2.3 20.4 0 35.3-4.4 56.5-16.9 4.4-2.5 16.6-9.6 27-15.6 10.5-6 26.7-15.4 36-20.8 9.4-5.4 18.4-10.6 20-11.5 13.9-7.8 44.5-25.6 46.7-27.1 1.5-1.1 3-1.9 3.2-1.9.3 0 5-2.6 10.3-5.8 5.4-3.2 12.5-7.3 15.8-9.2 3.3-1.8 9.6-5.4 14-8 4.4-2.6 10-5.9 12.5-7.2 2.5-1.4 19.1-11 37-21.3 17.9-10.4 34.5-19.9 37-21.3 2.5-1.4 5.7-3.3 7.2-4.3 1.4-1.1 2.9-1.9 3.2-1.9 1 0 21-12.3 25.1-15.4 15-11.5 27.1-28.5 33-46 5.6-16.8 5.4-8.5 5.4-202.1 0-124.3-.3-180.4-1.1-183.5-5.8-24.4-13.6-38.9-28.9-54.1-6.4-6.2-14.3-12.1-21.4-16-1.6-.9-12.7-7.3-24.5-14.1-11.8-6.9-23.5-13.6-26-15-2.5-1.4-8.4-4.8-13.2-7.7-4.8-2.8-9.1-5.1-9.7-5.1-.6 0-1.1-.5-1.1-1 0-.6-.4-1-1-1-.5 0-3.9-1.8-7.5-4s-6.8-4-7-4c-.3 0-2.2-1.1-4.3-2.3-2-1.3-5.7-3.5-8.2-4.9-2.5-1.4-24.5-14.1-49-28.3-24.5-14.2-54.6-31.6-67-38.7-84.8-49-83.5-48.3-99.8-51.7-7.5-1.6-31.1-2.8-32.4-1.6zm-58.4 275l2.6 2.4v33.3c-.1 27.4-.3 33.6-1.5 35.2-.8 1.1-6.7 5.2-13.2 9.2-13.9 8.6-26.8 16.5-29.1 17.9-.9.5-13 8-26.7 16.6-23.1 14.4-49.1 30.5-57.5 35.7-1.9 1.1-4 2.9-4.6 3.9-1.6 2.6-.9 8.2 1.2 10.3 1.1.9 12.5 8.3 25.4 16.2 12.9 8 33.2 20.6 45.1 28 11.8 7.4 22.2 13.8 23 14.1.8.4 4.1 2.5 7.4 4.6 3.3 2.2 10.6 6.8 16.3 10.2 5.6 3.4 11.1 7.3 12.2 8.7 1.9 2.3 2 4.1 2 36.2 0 31.7-.1 33.8-1.9 35.9-3.6 4.2-7.7 3.8-16.1-1.5-4.1-2.6-10.2-6.5-13.5-8.5-9.6-6.2-50.8-32-66-41.5-13-8.1-28.7-17.9-47.8-30-4.2-2.7-8.9-5.6-10.2-6.4-4.2-2.5-33.4-20.9-42.8-26.9-13.2-8.5-12.8-6.8-12.6-45.7.1-31.1.1-32 2.3-35.3 2-3.1 13.1-10.6 39.1-26.2 3.9-2.3 9.9-6.1 13.5-8.4 8.2-5.3 40.9-25.7 43.3-27 2.2-1.3 20.2-12.5 28.7-17.9 3.6-2.3 8.3-5.3 10.5-6.6 2.2-1.3 6.3-3.8 9-5.5 7.6-4.9 49.7-31 52-32.3 3.3-1.8 7-1.4 9.9 1.3zm158.7 3.4c5.2 3.2 19.8 12.2 32.4 20.1 12.7 7.8 24.9 15.4 27.2 16.9 10.4 6.5 25.1 15.7 54.3 33.8 17.3 10.7 34.4 21.4 37.9 23.7 3.6 2.2 7.3 4.5 8.3 5.1 1 .5 7.4 4.5 14.3 8.9 17.6 11 16.5 7.8 16.5 47.3 0 30.7-.1 31.9-2.1 35.3-2.6 4.2-1.6 3.5-26.9 19.3-11.3 7.1-22.2 13.9-24.2 15.3-2.1 1.3-5.5 3.5-7.5 4.7-2.1 1.3-6.9 4.4-10.7 6.8-3.9 2.4-7.8 4.8-8.8 5.4-.9.5-6.7 4.1-12.8 8-6 3.8-12.8 8.1-15 9.5-16.4 10.2-47.3 29.7-61 38.5-9.1 5.8-17.2 10.8-18 11.2-.8.3-3.4 1.9-5.7 3.5-8.1 5.4-12.3 5.9-16.3 1.6-1.9-2.1-2-3.4-2-35.8 0-28.3.2-33.9 1.5-35.7.8-1.2 9.3-7 18.8-12.9 9.4-5.8 19.9-12.3 23.2-14.4 3.3-2.1 14.6-9 25-15.5 10.5-6.4 20.6-12.7 22.5-14 1.9-1.2 6.4-4 10-6.2 16.6-10.3 19.4-12.1 25.2-15.8 7-4.5 8.8-7.8 6.8-12.5-.8-2-4.8-5.1-14.8-11.3-7.5-4.6-27-16.7-43.2-26.7-16.2-10.1-31.7-19.7-34.5-21.5-2.7-1.7-12.2-7.6-21-13s-16.8-10.7-17.7-11.7c-1.6-1.8-1.8-5-1.8-35.3v-33.2l2.5-2.7c3.7-4 6.9-3.4 17.6 3.3z"/></svg>